<?xml version="1.0" encoding="UTF-8" standalone="no"?>
<!-- Created with Inkscape (http://www.inkscape.org/) -->

<svg
   xmlns:dc="http://purl.org/dc/elements/1.1/"
   xmlns:cc="http://creativecommons.org/ns#"
   xmlns:rdf="http://www.w3.org/1999/02/22-rdf-syntax-ns#"
   xmlns:svg="http://www.w3.org/2000/svg"
   xmlns="http://www.w3.org/2000/svg"
   xmlns:sodipodi="http://sodipodi.sourceforge.net/DTD/sodipodi-0.dtd"
   xmlns:inkscape="http://www.inkscape.org/namespaces/inkscape"
   id="svg2"
   version="1.1"
   inkscape:version="0.91 r13725"
   xml:space="preserve"
   width="373.38632"
   height="163.9109"
   viewBox="0 0 373.38632 163.9109"
   sodipodi:docname="cavitything.svg"><metadata
     id="metadata8"><rdf:RDF><cc:Work
         rdf:about=""><dc:format>image/svg+xml</dc:format><dc:type
           rdf:resource="http://purl.org/dc/dcmitype/StillImage" /><dc:title></dc:title></cc:Work></rdf:RDF></metadata><defs
     id="defs6" /><sodipodi:namedview
     pagecolor="#ffffff"
     bordercolor="#666666"
     borderopacity="1"
     objecttolerance="10"
     gridtolerance="10"
     guidetolerance="10"
     inkscape:pageopacity="0"
     inkscape:pageshadow="2"
     inkscape:window-width="1920"
     inkscape:window-height="1056"
     id="namedview4"
     showgrid="false"
     fit-margin-bottom="0"
     fit-margin-top="0"
     fit-margin-left="0"
     fit-margin-right="0"
     inkscape:zoom="1.0006601"
     inkscape:cx="185.67358"
     inkscape:cy="75.180897"
     inkscape:window-x="0"
     inkscape:window-y="24"
     inkscape:window-maximized="1"
     inkscape:current-layer="g10" /><g
     id="g10"
     inkscape:groupmode="layer"
     inkscape:label="ink_ext_XXXXXX"
     transform="matrix(1.25,0,0,-1.25,-3.7014184,178.73)"><g
       id="g12"
       transform="scale(0.1,0.1)"><path
         d="m 1341.91,1203.09 -6.29,0 -7.53,-0.63 -10.71,-0.62 -13.86,-0.63 -17.04,-0.62 -18.24,-1.29 -39.06,-3.75 -18.91,-1.92 -18.24,-1.87 -17.03,-2.54 -15.74,-3.13 -15.12,-3.16 -14.49,-3.16 -13.2,-4.42 -13.25,-4.37 -12.61,-5.04 -13.21,-5.71 -11.99,-5.03 -23.91,-12.58 -12.61,-7.54 -13.25,-7.58 -12.57,-8.2 -13.249,-8.79 -13.199,-8.83 -13.243,-10.08 -13.238,-9.45 -13.211,-10.7 -12.609,-10.08 -12.582,-10.71 -11.989,-10.7 -11.332,-10.12 -20.777,-20.78 -9.461,-10.08 -8.82,-9.41 -8.168,-9.449 -7.582,-8.832 -6.289,-9.449 -8.821,-11.961 -7.539,-11.988 -6.293,-11.95 -6.328,-11.961 -5.039,-11.992 -4.41,-12.578 -3.75,-11.988 -3.172,-12.582 -1.871,-11.988 -1.918,-11.954 -1.25,-11.328 -1.25,-10.699 0,-10.75 -0.621,-10.699 0,-39.024 0.621,-10.738 0,-10.711 1.25,-10.699 1.25,-11.328 1.918,-11.992 1.871,-11.95 3.172,-12.582 3.75,-11.988 4.41,-12.582 5.039,-11.988 6.328,-11.961 6.293,-11.988 7.539,-11.95 8.821,-12.582 6.289,-8.828 7.582,-8.832 8.168,-9.449 8.82,-9.449 9.461,-10.082 20.777,-20.778 11.332,-10.082 11.989,-10.699 12.582,-10.711 12.609,-10.07 13.211,-10.707 13.238,-9.453 13.243,-10.078 13.199,-8.832 13.249,-8.829 12.57,-8.16 13.25,-7.582 12.61,-7.539 11.96,-6.289 11.95,-6.32 11.99,-5.668 13.21,-5.043 12.61,-5.039 13.25,-4.41 13.2,-4.41 14.49,-3.129 15.12,-3.161 15.74,-3.171 17.03,-2.5 18.24,-1.868 18.91,-1.921 19.53,-1.872 19.53,-1.918 18.24,-1.25 17.04,-0.621 13.86,-0.629 10.71,-0.621 7.53,-0.629 6.29,0"
         style="fill:#87cfff;fill-opacity:1;fill-rule:evenodd;stroke:none"
         id="path14"
         inkscape:connector-curvature="0" /><path
         d="m 1341.91,1203.09 -6.29,0 -7.53,-0.63 -10.71,-0.62 -13.86,-0.63 -17.04,-0.62 -18.24,-1.29 -39.06,-3.75 -18.91,-1.92 -18.24,-1.87 -17.03,-2.54 -15.74,-3.13 -15.12,-3.16 -14.49,-3.16 -13.2,-4.42 -13.25,-4.37 -12.61,-5.04 -13.21,-5.71 -11.99,-5.03 -23.91,-12.58 -12.61,-7.54 -13.25,-7.58 -12.57,-8.2 -13.249,-8.79 -13.199,-8.83 -13.243,-10.08 -13.238,-9.45 -13.211,-10.7 -12.609,-10.08 -12.582,-10.71 -11.989,-10.7 -11.332,-10.12 -20.777,-20.78 -9.461,-10.08 -8.82,-9.41 -8.168,-9.449 -7.582,-8.832 -6.289,-9.449 -8.821,-11.961 -7.539,-11.988 -6.293,-11.95 -6.328,-11.961 -5.039,-11.992 -4.41,-12.578 -3.75,-11.988 -3.172,-12.582 -1.871,-11.988 -1.918,-11.954 -1.25,-11.328 -1.25,-10.699 0,-10.75 -0.621,-10.699 0,-39.024 0.621,-10.738 0,-10.711 1.25,-10.699 1.25,-11.328 1.918,-11.992 1.871,-11.95 3.172,-12.582 3.75,-11.988 4.41,-12.582 5.039,-11.988 6.328,-11.961 6.293,-11.988 7.539,-11.95 8.821,-12.582 6.289,-8.828 7.582,-8.832 8.168,-9.449 8.82,-9.449 9.461,-10.082 20.777,-20.778 11.332,-10.082 11.989,-10.699 12.582,-10.711 12.609,-10.07 13.211,-10.707 13.238,-9.453 13.243,-10.078 13.199,-8.832 13.249,-8.829 12.57,-8.16 13.25,-7.582 12.61,-7.539 11.96,-6.289 11.95,-6.32 11.99,-5.668 13.21,-5.043 12.61,-5.039 13.25,-4.41 13.2,-4.41 14.49,-3.129 15.12,-3.161 15.74,-3.171 17.03,-2.5 18.24,-1.868 18.91,-1.921 19.53,-1.872 19.53,-1.918 18.24,-1.25 17.04,-0.621 13.86,-0.629 10.71,-0.621 7.53,-0.629 6.29,0"
         style="fill:none;stroke:#000000;stroke-width:4.72424984;stroke-linecap:round;stroke-linejoin:bevel;stroke-miterlimit:10;stroke-dasharray:none;stroke-opacity:1"
         id="path16"
         inkscape:connector-curvature="0" /><path
         d="m 1965.55,1203.09 6.29,0 7.54,-0.63 10.74,-0.62 13.83,-0.63 17.03,-0.62 18.24,-1.29 39.06,-3.75 18.91,-1.92 18.28,-1.87 16.99,-2.54 15.74,-3.13 15.12,-3.16 14.49,-3.16 13.24,-4.42 13.21,-4.37 12.62,-5.04 13.2,-5.71 11.99,-5.03 11.95,-6.29 12,-6.29 12.57,-7.54 13.25,-7.58 12.57,-8.2 13.25,-8.79 13.24,-8.83 13.2,-10.08 13.24,-9.45 13.21,-10.7 12.61,-10.08 12.58,-10.71 11.99,-10.7 11.33,-10.12 20.78,-20.78 9.46,-10.08 8.82,-9.41 8.17,-9.449 7.58,-8.832 6.91,-9.449 8.2,-11.961 7.54,-11.988 6.33,-11.95 6.29,-11.961 5.04,-11.992 4.41,-12.578 3.75,-11.988 3.17,-12.582 1.87,-11.988 1.92,-11.954 1.25,-11.328 1.25,-10.699 0,-10.75 0.66,-10.699 0,-39.024 -0.66,-10.738 0,-10.711 -1.25,-10.699 -1.25,-11.328 -1.92,-11.992 -1.87,-11.95 -3.17,-12.582 -3.75,-11.988 -4.41,-12.582 -5.04,-11.988 -6.29,-11.961 -6.33,-11.988 -7.54,-11.95 -8.2,-12.582 -6.91,-8.828 -7.58,-8.832 -8.17,-9.449 -8.82,-9.449 -9.46,-10.082 -20.78,-20.778 -11.33,-10.082 -11.99,-10.699 -12.58,-10.711 -12.61,-10.07 -13.21,-10.707 -13.24,-9.453 -13.2,-10.078 -26.49,-17.661 -12.57,-8.16 -13.25,-7.582 -12.57,-7.539 -12,-6.289 -11.95,-6.32 -11.99,-5.668 -13.2,-5.043 -12.62,-5.039 -13.21,-4.41 -13.24,-4.41 -14.49,-3.129 -15.12,-3.161 -15.74,-3.171 -16.99,-2.5 -18.28,-1.868 -18.91,-1.921 -19.53,-1.872 -19.53,-1.918 -18.24,-1.25 -17.03,-0.621 -13.83,-0.629 -10.74,-0.621 -7.54,-0.629 -6.29,0"
         style="fill:#87cfff;fill-opacity:1;fill-rule:evenodd;stroke:none"
         id="path18"
         inkscape:connector-curvature="0" /><path
         d="m 1965.55,1203.09 6.29,0 7.54,-0.63 10.74,-0.62 13.83,-0.63 17.03,-0.62 18.24,-1.29 39.06,-3.75 18.91,-1.92 18.28,-1.87 16.99,-2.54 15.74,-3.13 15.12,-3.16 14.49,-3.16 13.24,-4.42 13.21,-4.37 12.62,-5.04 13.2,-5.71 11.99,-5.03 11.95,-6.29 12,-6.29 12.57,-7.54 13.25,-7.58 12.57,-8.2 13.25,-8.79 13.24,-8.83 13.2,-10.08 13.24,-9.45 13.21,-10.7 12.61,-10.08 12.58,-10.71 11.99,-10.7 11.33,-10.12 20.78,-20.78 9.46,-10.08 8.82,-9.41 8.17,-9.449 7.58,-8.832 6.91,-9.449 8.2,-11.961 7.54,-11.988 6.33,-11.95 6.29,-11.961 5.04,-11.992 4.41,-12.578 3.75,-11.988 3.17,-12.582 1.87,-11.988 1.92,-11.954 1.25,-11.328 1.25,-10.699 0,-10.75 0.66,-10.699 0,-39.024 -0.66,-10.738 0,-10.711 -1.25,-10.699 -1.25,-11.328 -1.92,-11.992 -1.87,-11.95 -3.17,-12.582 -3.75,-11.988 -4.41,-12.582 -5.04,-11.988 -6.29,-11.961 -6.33,-11.988 -7.54,-11.95 -8.2,-12.582 -6.91,-8.828 -7.58,-8.832 -8.17,-9.449 -8.82,-9.449 -9.46,-10.082 -20.78,-20.778 -11.33,-10.082 -11.99,-10.699 -12.58,-10.711 -12.61,-10.07 -13.21,-10.707 -13.24,-9.453 -13.2,-10.078 -26.49,-17.661 -12.57,-8.16 -13.25,-7.582 -12.57,-7.539 -12,-6.289 -11.95,-6.32 -11.99,-5.668 -13.2,-5.043 -12.62,-5.039 -13.21,-4.41 -13.24,-4.41 -14.49,-3.129 -15.12,-3.161 -15.74,-3.171 -16.99,-2.5 -18.28,-1.868 -18.91,-1.921 -19.53,-1.872 -19.53,-1.918 -18.24,-1.25 -17.03,-0.621 -13.83,-0.629 -10.74,-0.621 -7.54,-0.629 -6.29,0"
         style="fill:none;stroke:#000000;stroke-width:4.72424984;stroke-linecap:round;stroke-linejoin:bevel;stroke-miterlimit:10;stroke-dasharray:none;stroke-opacity:1"
         id="path20"
         inkscape:connector-curvature="0" /><path
         d="m 1341.91,409.41 c -123.86,81.68 -198.39,220.121 -198.39,368.481 0,148.398 74.53,286.839 198.39,368.519"
         style="fill:#ffffff;fill-opacity:1;fill-rule:evenodd;stroke:none"
         id="path22"
         inkscape:connector-curvature="0" /><path
         d="m 1341.91,409.41 c -123.86,81.68 -198.39,220.121 -198.39,368.481 0,148.398 74.53,286.839 198.39,368.519"
         style="fill:none;stroke:#000000;stroke-width:4.72424984;stroke-linecap:round;stroke-linejoin:bevel;stroke-miterlimit:10;stroke-dasharray:none;stroke-opacity:1"
         id="path24"
         inkscape:connector-curvature="0" /><path
         d="m 1341.91,1203.09 0,-56.68"
         style="fill:none;stroke:#000000;stroke-width:4.72424984;stroke-linecap:round;stroke-linejoin:round;stroke-miterlimit:10;stroke-dasharray:none;stroke-opacity:1"
         id="path26"
         inkscape:connector-curvature="0" /><path
         d="m 1341.91,352.73 0,56.68"
         style="fill:none;stroke:#000000;stroke-width:4.72424984;stroke-linecap:round;stroke-linejoin:round;stroke-miterlimit:10;stroke-dasharray:none;stroke-opacity:1"
         id="path28"
         inkscape:connector-curvature="0" /><path
         d="m 1965.55,409.41 c 123.86,81.68 198.4,220.121 198.4,368.481 0,148.398 -74.54,286.839 -198.4,368.519"
         style="fill:#ffffff;fill-opacity:1;fill-rule:evenodd;stroke:none"
         id="path30"
         inkscape:connector-curvature="0" /><path
         d="m 1965.55,409.41 c 123.86,81.68 198.4,220.121 198.4,368.481 0,148.398 -74.54,286.839 -198.4,368.519"
         style="fill:none;stroke:#000000;stroke-width:4.72424984;stroke-linecap:round;stroke-linejoin:round;stroke-miterlimit:10;stroke-dasharray:none;stroke-opacity:1"
         id="path32"
         inkscape:connector-curvature="0" /><path
         d="m 1965.55,1203.09 0,-56.68"
         style="fill:none;stroke:#000000;stroke-width:4.72424984;stroke-linecap:round;stroke-linejoin:round;stroke-miterlimit:10;stroke-dasharray:none;stroke-opacity:1"
         id="path34"
         inkscape:connector-curvature="0" /><path
         d="m 1965.55,352.73 0,56.68"
         style="fill:none;stroke:#000000;stroke-width:4.72424984;stroke-linecap:round;stroke-linejoin:round;stroke-miterlimit:10;stroke-dasharray:none;stroke-opacity:1"
         id="path36"
         inkscape:connector-curvature="0" /><path
         d="M 1540.35,296.02 1313.59,466.09"
         style="fill:none;stroke:#000000;stroke-width:4.72424984;stroke-linecap:round;stroke-linejoin:round;stroke-miterlimit:10;stroke-dasharray:none;stroke-opacity:1"
         id="path38"
         inkscape:connector-curvature="0" /><path
         d="m 1393.59,429.57 -71.79,30.231 49.1,-60.461 22.69,30.23"
         style="fill:#000000;fill-opacity:1;fill-rule:evenodd;stroke:none"
         id="path40"
         inkscape:connector-curvature="0" /><path
         d="m 1393.59,429.57 -71.79,30.231 49.1,-60.461 22.69,30.23 z"
         style="fill:none;stroke:#000000;stroke-width:4.72424984;stroke-linecap:butt;stroke-linejoin:miter;stroke-miterlimit:10;stroke-dasharray:none;stroke-opacity:1"
         id="path42"
         inkscape:connector-curvature="0" /><path
         d="m 1767.11,296.02 226.76,170.07"
         style="fill:none;stroke:#000000;stroke-width:4.72424984;stroke-linecap:round;stroke-linejoin:round;stroke-miterlimit:10;stroke-dasharray:none;stroke-opacity:1"
         id="path44"
         inkscape:connector-curvature="0" /><path
         d="m 1936.56,399.34 49.14,60.461 -71.83,-30.231 22.69,-30.23"
         style="fill:#000000;fill-opacity:1;fill-rule:evenodd;stroke:none"
         id="path46"
         inkscape:connector-curvature="0" /><path
         d="m 1936.56,399.34 49.14,60.461 -71.83,-30.231 22.69,-30.23 z"
         style="fill:none;stroke:#000000;stroke-width:4.72424984;stroke-linecap:butt;stroke-linejoin:miter;stroke-miterlimit:10;stroke-dasharray:none;stroke-opacity:1"
         id="path48"
         inkscape:connector-curvature="0" /><path
         d="m 1795.47,1373.16 368.48,0"
         style="fill:none;stroke:#000000;stroke-width:4.72424984;stroke-linecap:butt;stroke-linejoin:miter;stroke-miterlimit:10;stroke-dasharray:none;stroke-opacity:1"
         id="path50"
         inkscape:connector-curvature="0" /><path
         d="m 2078.28,1354.26 75.59,18.9 -75.59,18.91 0,-37.81"
         style="fill:#000000;fill-opacity:1;fill-rule:evenodd;stroke:none"
         id="path52"
         inkscape:connector-curvature="0" /><path
         d="m 2078.28,1354.26 75.59,18.9 -75.59,18.91 0,-37.81 z"
         style="fill:none;stroke:#000000;stroke-width:4.72424984;stroke-linecap:butt;stroke-linejoin:miter;stroke-miterlimit:10;stroke-dasharray:none;stroke-opacity:1"
         id="path54"
         inkscape:connector-curvature="0" /><path
         d="m 1511.99,1373.16 -368.47,0"
         style="fill:none;stroke:#000000;stroke-width:4.72424984;stroke-linecap:butt;stroke-linejoin:miter;stroke-miterlimit:10;stroke-dasharray:none;stroke-opacity:1"
         id="path56"
         inkscape:connector-curvature="0" /><path
         d="m 1229.18,1392.07 -75.59,-18.91 75.59,-18.9 0,37.81"
         style="fill:#000000;fill-opacity:1;fill-rule:evenodd;stroke:none"
         id="path58"
         inkscape:connector-curvature="0" /><path
         d="m 1229.18,1392.07 -75.59,-18.91 75.59,-18.9 0,37.81 z"
         style="fill:none;stroke:#000000;stroke-width:4.72424984;stroke-linecap:butt;stroke-linejoin:miter;stroke-miterlimit:10;stroke-dasharray:none;stroke-opacity:1"
         id="path60"
         inkscape:connector-curvature="0" /><g
         id="g62"
         transform="scale(10,10)"><text
           transform="matrix(1,0,0,-1,162.539,131.647)"
           style="font-variant:normal;font-size:13.99950027px;font-family:f-0;-inkscape-font-specification:f-0-0;writing-mode:lr-tb;fill:#000000;fill-opacity:1;fill-rule:nonzero;stroke:none"
           id="text64"><tspan
             x="0"
             y="0"
             id="tspan66">L</tspan></text>
</g><path
         d="m 1682.07,777.891 c 0,-15.621 -12.69,-28.321 -28.36,-28.321 -15.62,0 -28.32,12.7 -28.32,28.321 0,15.66 12.7,28.359 28.32,28.359 15.67,0 28.36,-12.699 28.36,-28.359"
         style="fill:#0000ff;fill-opacity:1;fill-rule:evenodd;stroke:none"
         id="path68"
         inkscape:connector-curvature="0" /><path
         d="m 1682.07,777.891 c 0,-15.621 -12.69,-28.321 -28.36,-28.321 -15.62,0 -28.32,12.7 -28.32,28.321 0,15.66 12.7,28.359 28.32,28.359 15.67,0 28.36,-12.699 28.36,-28.359 z"
         style="fill:none;stroke:#0000ff;stroke-width:4.72424984;stroke-linecap:butt;stroke-linejoin:miter;stroke-miterlimit:10;stroke-dasharray:none;stroke-opacity:1"
         id="path70"
         inkscape:connector-curvature="0" /><path
         d="m 519.922,834.609 0,56.68 113.359,0 0,28.359 56.719,-56.718 -56.719,-56.68 0,28.359"
         style="fill:#ff0000;fill-opacity:1;fill-rule:evenodd;stroke:none"
         id="path72"
         inkscape:connector-curvature="0" /><path
         d="m 519.922,834.609 0,56.68 113.359,0 0,28.359 56.719,-56.718 -56.719,-56.68 0,28.359 -113.359,0 z"
         style="fill:none;stroke:#ff0000;stroke-width:4.72424984;stroke-linecap:round;stroke-linejoin:round;stroke-miterlimit:10;stroke-dasharray:none;stroke-opacity:1"
         id="path74"
         inkscape:connector-curvature="0" /><path
         d="m 633.281,692.852 0,56.718 -113.359,0 0,28.321 -56.684,-56.68 56.684,-56.68 0,28.321"
         style="fill:#ff0000;fill-opacity:1;fill-rule:evenodd;stroke:none"
         id="path76"
         inkscape:connector-curvature="0" /><path
         d="m 633.281,692.852 0,56.718 -113.359,0 0,28.321 -56.684,-56.68 56.684,-56.68 0,28.321 113.359,0 z"
         style="fill:none;stroke:#ff0000;stroke-width:4.72424984;stroke-linecap:round;stroke-linejoin:round;stroke-miterlimit:10;stroke-dasharray:none;stroke-opacity:1"
         id="path78"
         inkscape:connector-curvature="0" /><path
         d="m 1256.88,1061.37 -141.72,113.36 -680.281,0"
         style="fill:none;stroke:#ff0000;stroke-width:4.72424984;stroke-linecap:round;stroke-linejoin:round;stroke-miterlimit:10;stroke-dasharray:none;stroke-opacity:1"
         id="path80"
         inkscape:connector-curvature="0" /><path
         d="m 2844.26,749.57 0,56.68 113.36,0 0,28.359 56.72,-56.718 -56.72,-56.68 0,28.359"
         style="fill:#ff0000;fill-opacity:1;fill-rule:evenodd;stroke:none"
         id="path82"
         inkscape:connector-curvature="0" /><path
         d="m 2844.26,749.57 0,56.68 113.36,0 0,28.359 56.72,-56.718 -56.72,-56.68 0,28.359 -113.36,0 z"
         style="fill:none;stroke:#ff0000;stroke-width:4.72424984;stroke-linecap:round;stroke-linejoin:round;stroke-miterlimit:10;stroke-dasharray:none;stroke-opacity:1"
         id="path84"
         inkscape:connector-curvature="0" /><path
         d="m 1256.88,494.449 -141.72,-113.398 -680.281,0"
         style="fill:none;stroke:#ff0000;stroke-width:4.72424984;stroke-linecap:round;stroke-linejoin:round;stroke-miterlimit:10;stroke-dasharray:none;stroke-opacity:1"
         id="path86"
         inkscape:connector-curvature="0" /><path
         d="m 2050.59,1061.37 141.71,113.36 680.28,0"
         style="fill:none;stroke:#ff0000;stroke-width:4.72424984;stroke-linecap:round;stroke-linejoin:round;stroke-miterlimit:10;stroke-dasharray:none;stroke-opacity:1"
         id="path88"
         inkscape:connector-curvature="0" /><path
         d="m 2050.59,494.449 141.71,-113.398 680.28,0"
         style="fill:none;stroke:#ff0000;stroke-width:4.72424984;stroke-linecap:round;stroke-linejoin:round;stroke-miterlimit:10;stroke-dasharray:none;stroke-opacity:1"
         id="path90"
         inkscape:connector-curvature="0" /><path
         d="m 1256.88,1061.37 1.28,-1.25 3.13,-2.54 5.66,-4.42 8.83,-6.91 11.99,-8.83 14.5,-11.33 17.61,-13.86 20.16,-15.121 21.41,-15.738 22.69,-16.371 22.66,-16.41 23.32,-15.738 22.03,-15.122 21.44,-13.82 20.79,-13.25 18.9,-11.32 18.87,-10.078 17.03,-8.211 16.99,-7.571 15.74,-6.289 15.12,-4.421 14.49,-3.75 13.87,-2.54 14.49,-1.25 13.83,-0.621 13.87,0.621 14.49,1.25 13.87,2.54 14.49,3.75 15.12,4.421 15.74,6.289 16.99,7.571 17.03,8.211 18.91,10.078 18.87,11.32 20.78,13.25 21.44,13.82 22.03,15.122 23.32,15.738 22.66,16.41 22.7,16.371 21.4,15.738 20.16,15.121 17.65,13.86 14.46,11.33 11.99,8.83 8.83,6.91 5.66,4.42 3.13,2.54 1.29,1.25"
         style="fill:none;stroke:#ff0000;stroke-width:18.89699936;stroke-linecap:round;stroke-linejoin:bevel;stroke-miterlimit:10;stroke-dasharray:none;stroke-opacity:1"
         id="path92"
         inkscape:connector-curvature="0" /><path
         d="m 1256.88,494.449 1.28,1.25 3.13,2.539 5.66,4.422 8.83,6.91 11.99,8.828 14.5,11.332 17.61,13.86 20.16,15.121 21.41,15.738 22.69,16.371 22.66,16.371 23.32,15.739 22.03,15.121 21.44,13.859 20.79,13.25 18.9,11.32 18.87,10.079 17.03,8.211 16.99,7.531 15.74,6.328 15.12,4.383 14.49,3.789 13.87,2.539 14.49,1.25 13.83,0.621 13.87,-0.621 14.49,-1.25 13.87,-2.539 14.49,-3.789 15.12,-4.383 15.74,-6.328 16.99,-7.531 17.03,-8.211 18.91,-10.079 18.87,-11.32 20.78,-13.25 21.44,-13.859 22.03,-15.121 23.32,-15.739 22.66,-16.371 22.7,-16.371 21.4,-15.738 20.16,-15.121 17.65,-13.86 14.46,-11.332 11.99,-8.828 8.83,-6.91 5.66,-4.422 3.13,-2.539 1.29,-1.25"
         style="fill:none;stroke:#ff0000;stroke-width:18.89699936;stroke-linecap:round;stroke-linejoin:bevel;stroke-miterlimit:10;stroke-dasharray:none;stroke-opacity:1"
         id="path94"
         inkscape:connector-curvature="0" /><path
         d="m 2163.95,777.891 0,651.949"
         style="fill:none;stroke:#000000;stroke-width:4.72424984;stroke-linecap:butt;stroke-linejoin:miter;stroke-miterlimit:10;stroke-dasharray:37.794, 37.794;stroke-dashoffset:0;stroke-opacity:1"
         id="path96"
         inkscape:connector-curvature="0" /><path
         d="m 1143.52,777.891 0,651.949"
         style="fill:none;stroke:#000000;stroke-width:4.72424984;stroke-linecap:butt;stroke-linejoin:miter;stroke-miterlimit:10;stroke-dasharray:37.794, 37.794;stroke-dashoffset:0;stroke-opacity:1"
         id="path98"
         inkscape:connector-curvature="0" /><g
         id="g100"
         transform="scale(10,10)"><text
           transform="matrix(1,0,0,-1,1.59883,82.3457)"
           style="font-variant:normal;font-weight:normal;font-size:15px;font-family:'DejaVu Sans';-inkscape-font-specification:DejaVuSans;writing-mode:lr-tb;fill:#000000;fill-opacity:1;fill-rule:nonzero;stroke:none"
           id="text102"><tspan
             x="0 4.1700001 13.68 23.205 32.715"
             y="0"
             sodipodi:role="line"
             id="tspan104">input</tspan><tspan
             x="0 14.61 23.790001 33.314999"
             y="18.75"
             sodipodi:role="line"
             id="tspan106">mode</tspan><tspan
             x="123.153 134.433 144.858 149.62801 157.87801 167.058 176.25301 182.133 186.30299 195.85812"
             y="67.3703"
             sodipodi:role="line"
             id="tspan108">HR coating</tspan></text>
</g></g></g></svg>